<svg xmlns="http://www.w3.org/2000/svg" xmlns:xlink="http://www.w3.org/1999/xlink" width="500" zoomAndPan="magnify" viewBox="0 0 375 149.999998" height="200" preserveAspectRatio="xMidYMid meet" version="1.0"><defs><g/><clipPath id="4fecc1df9f"><path d="M 82.636719 98.316406 L 175.527344 98.316406 L 175.527344 108.648438 L 82.636719 108.648438 Z M 82.636719 98.316406 " clip-rule="nonzero"/></clipPath><clipPath id="c12195c3a2"><path d="M 187.621094 39.609375 L 280.511719 39.609375 L 280.511719 49.9375 L 187.621094 49.9375 Z M 187.621094 39.609375 " clip-rule="nonzero"/></clipPath></defs><rect x="-37.5" width="450" fill="#ffffff" y="-15" height="179.999997" fill-opacity="1"/><rect x="-37.5" width="450" fill="#f1efe7" y="-15" height="179.999997" fill-opacity="1"/><g clip-path="url(#4fecc1df9f)"><path fill="#000000" d="M 82.636719 98.316406 L 175.523438 98.316406 L 175.523438 108.648438 L 82.636719 108.648438 Z M 82.636719 98.316406 " fill-opacity="1" fill-rule="nonzero"/></g><g clip-path="url(#c12195c3a2)"><path fill="#000000" d="M 187.621094 39.609375 L 280.507812 39.609375 L 280.507812 49.9375 L 187.621094 49.9375 Z M 187.621094 39.609375 " fill-opacity="1" fill-rule="nonzero"/></g><g fill="#000000" fill-opacity="1"><g transform="translate(72.902387, 79.870053)"><g><path d="M 24.953125 0.839844 C 38.09375 0.839844 47.390625 -8.160156 47.390625 -20.996094 C 47.390625 -33.832031 38.09375 -42.832031 24.953125 -42.832031 C 11.816406 -42.832031 2.578125 -33.832031 2.578125 -20.996094 C 2.578125 -8.160156 11.816406 0.839844 24.953125 0.839844 Z M 12.296875 -20.996094 C 12.296875 -28.554688 17.515625 -33.773438 24.953125 -33.773438 C 32.453125 -33.773438 37.613281 -28.554688 37.613281 -20.996094 C 37.613281 -13.4375 32.453125 -8.21875 24.953125 -8.21875 C 17.515625 -8.21875 12.296875 -13.4375 12.296875 -20.996094 Z M 12.296875 -20.996094 "/></g></g></g><g fill="#000000" fill-opacity="1"><g transform="translate(135.288388, 79.870053)"><g><path d="M 24.953125 0.839844 C 38.09375 0.839844 47.390625 -8.160156 47.390625 -20.996094 C 47.390625 -33.832031 38.09375 -42.832031 24.953125 -42.832031 C 11.816406 -42.832031 2.578125 -33.832031 2.578125 -20.996094 C 2.578125 -8.160156 11.816406 0.839844 24.953125 0.839844 Z M 12.296875 -20.996094 C 12.296875 -28.554688 17.515625 -33.773438 24.953125 -33.773438 C 32.453125 -33.773438 37.613281 -28.554688 37.613281 -20.996094 C 37.613281 -13.4375 32.453125 -8.21875 24.953125 -8.21875 C 17.515625 -8.21875 12.296875 -13.4375 12.296875 -20.996094 Z M 12.296875 -20.996094 "/></g></g></g><g fill="#000000" fill-opacity="1"><g transform="translate(192.733278, 108.374404)"><g><path d="M 5.039062 0 L 14.578125 0 L 14.578125 -11.699219 L 21.476562 -11.699219 C 31.613281 -11.699219 38.152344 -17.636719 38.152344 -26.8125 C 38.152344 -36.050781 31.613281 -41.992188 21.476562 -41.992188 L 5.039062 -41.992188 Z M 14.515625 -19.914062 L 14.515625 -33.652344 L 20.695312 -33.652344 C 25.675781 -33.652344 28.433594 -31.132812 28.433594 -26.753906 C 28.433594 -22.375 25.675781 -19.914062 20.695312 -19.914062 Z M 14.515625 -19.914062 "/></g></g></g><g fill="#000000" fill-opacity="1"><g transform="translate(245.041743, 108.374404)"><g><path d="M 19.675781 0.839844 C 29.632812 0.839844 35.753906 -3.898438 35.753906 -11.816406 C 35.753906 -18.476562 31.375 -22.433594 20.9375 -24.894531 C 14.515625 -26.394531 12.296875 -28.015625 12.296875 -30.59375 C 12.296875 -33.351562 14.757812 -35.03125 18.777344 -35.03125 C 23.15625 -35.03125 25.792969 -32.753906 25.792969 -28.972656 L 34.972656 -28.972656 C 34.972656 -37.433594 28.613281 -42.832031 18.65625 -42.832031 C 9 -42.832031 3 -38.09375 3 -30.414062 C 3 -23.574219 7.617188 -19.496094 17.457031 -17.394531 C 23.394531 -16.136719 26.09375 -14.398438 26.09375 -11.457031 C 26.09375 -8.636719 23.574219 -7.019531 19.617188 -7.019531 C 14.996094 -7.019531 11.996094 -9.359375 11.996094 -13.378906 L 2.640625 -13.378906 C 2.640625 -4.679688 9.117188 0.839844 19.675781 0.839844 Z M 19.675781 0.839844 "/></g></g></g></svg>